<svg width="270" height="333" viewBox="0 0 270 333" fill="none" xmlns="http://www.w3.org/2000/svg">
<path d="M268.238 1.67057C265.887 3.51162 263.236 -2.46662 261.16 2.62212C258.959 2.04291 257.508 5.02169 255.432 5.53884C253.807 0.925874 252.381 7.2144 250.656 6.36628C247.729 8.43487 246.954 6.0353 244.778 9.20025C244.54 9.76037 244.17 10.2757 243.689 10.7162C243.208 11.1567 242.626 11.5135 241.976 11.7658C241.327 12.0181 240.623 12.1608 239.906 12.1856C239.189 12.2103 238.473 12.1167 237.8 11.9101C237.049 13.6808 236.521 15.5109 236.224 17.3712C236.192 17.3005 236.141 17.2368 236.074 17.185C234.624 24.3217 229.647 21.1567 223.569 21.3222C218.967 18.0745 214.59 20.6396 210.063 22.9357C206.462 23.5563 202.56 22.8323 198.884 22.9357C196.658 19.2743 195.107 29.8448 193.081 22.129C189.98 25.7283 189.58 15.9232 186.203 20.4534C184.152 21.1153 182.352 15.9232 180.351 19.5432C178.2 19.4398 175.774 20.2879 173.623 19.5432C170.047 16.0887 166.495 19.6466 162.944 19.5432C158.192 18.0331 153.64 24.4458 148.913 18.7158C145.811 18.3848 142.56 14.62 139.909 16.6886C137.758 12.5514 137.008 13.896 134.332 13.0271C131.83 9.77945 128.754 11.6619 125.978 10.5862C123.152 10.1725 119 8.72447 116.349 10.9379C113.623 9.42779 113.098 14.8061 109.996 12.2411C104.544 13.8546 100.117 6.26285 96.7157 14.5165C96.0654 14.0408 95.2901 11.8687 94.2146 17.1023C92.3639 14.6613 88.9374 21.7152 86.8866 17.2057C82.1096 17.9504 78.333 20.8671 73.731 19.7708C69.1032 19.7629 64.4809 20.0326 59.9002 20.5775C55.1482 15.5095 50.2461 18.9847 45.6192 20.5775C44.3139 19.8076 42.7271 19.4343 41.1273 19.521C39.5275 19.6077 38.0131 20.149 36.8405 21.0533C37.7159 23.3081 33.9393 21.9635 32.5387 22.2531C29.8376 22.2531 23.66 23.5977 17.3823 22.7495C10.0042 28.0658 8.42855 26.2661 2.30097 22.8943L0 23.1219V306.705C1.07545 303.416 5.00211 299.838 9.52901 303.561C18.7829 303.561 20.4336 306.374 23.3098 303.561C26.186 307.347 23.3098 304.678 26.8363 305.092C27.5866 307.16 33.9143 309.105 35.9151 306.209C38.1661 312.415 36.7655 308.526 39.8418 308.629C41.5675 308.629 41.9176 305.092 44.8439 309.87C47.1521 309.846 49.4135 310.409 51.3216 311.484C51.0965 311.484 51.1965 310.739 51.4967 315.993C53.9977 315.786 57.7243 322.468 59.2749 323.358C58.8998 318.786 61.776 325.716 62.5263 326.171C63.8019 330.494 64.4021 323.895 65.6776 325.24C71.4801 322.365 71.8302 328.819 75.4568 332.77C76.8323 330.536 80.1837 333.576 81.5343 331.777C84.0354 328.632 85.461 328.674 88.5623 329.398C91.5385 326.171 94.7149 331.963 97.6411 329.274C99.4168 330.039 101.143 325.405 103.093 327.702C104.494 330.949 104.019 331.549 105.019 328.612C106.995 333.783 107.52 329.522 110.346 329.46C112.372 326.585 115.649 331.156 117.625 329.46C119.175 330.867 120.476 332.646 121.601 327.267C123.577 327.908 125.103 326.254 128.079 323.73C130.58 323.295 133.756 326.15 136.432 323.564C139.134 326.233 139.384 320.544 141.435 322.737C143.135 325.261 145.086 320.151 146.437 321.165C148.137 324.433 147.912 317.172 150.138 318.476C150.813 321.744 153.565 317.359 153.965 318.579C155.741 317.172 157.541 315.331 159.317 318.579C161.818 315.849 161.818 319.117 163.694 320.213C167.245 321.703 173.248 317.4 176.724 316.531C179.801 314.98 182.952 313.346 185.903 315.455C189.755 313.387 193.882 315.456 197.683 315.931C201.485 316.407 205.336 320.751 208.988 316.097C212.865 314.028 215.791 318.352 218.692 318.662C221.593 319.551 224.494 322.075 228.296 321.165C231.998 319.427 235.324 321.641 239.026 320.275C243.678 316.883 248.33 316.138 252.981 320.275C256.558 317.586 260.21 321.103 263.686 320.275C265.562 317.069 267.363 316.51 269.138 316.717V1.96017C268.823 1.89851 268.52 1.80105 268.238 1.67057Z" fill="white"/>
<path d="M268.238 8.97271C265.887 10.731 263.236 5.08375 261.16 9.88289C258.959 9.32437 257.508 12.179 255.432 12.6755C253.807 8.2487 252.381 14.2683 250.656 13.4616C247.729 15.344 246.954 13.1306 244.778 16.1714C244.252 17.2699 243.228 18.1549 241.925 18.638C240.621 19.121 239.141 19.1638 237.8 18.7572C237.05 20.4499 236.521 22.2045 236.224 23.9907C236.193 23.9135 236.142 23.8429 236.074 23.7838C234.624 30.6309 229.647 27.59 223.569 27.7555C218.967 24.6526 214.59 27.0936 210.063 29.2863C206.462 29.8862 202.56 29.2863 198.884 29.3897C196.658 25.8731 195.107 35.9678 193.081 28.6037C189.98 32.0375 189.58 22.6254 186.203 26.9902C184.152 27.6314 182.352 22.6668 180.351 26.142C178.2 26.0386 175.774 26.8454 173.623 26.142C170.047 22.8323 166.495 26.142 162.944 26.142C158.192 24.6733 153.64 30.8171 148.913 25.3353C145.711 24.9009 142.335 21.3843 139.809 23.2667C137.658 19.3157 136.908 20.5982 134.231 19.7708C131.73 16.6679 128.654 18.4675 125.878 17.4333C123.052 17.0402 118.9 15.6543 116.249 17.7642C113.523 16.3369 112.998 21.467 109.896 19.0261C104.444 20.5568 100.017 13.2961 96.6157 21.0947C95.9654 20.6189 95.1901 18.5503 94.1146 23.5563C92.2638 21.2395 88.8374 27.9624 86.7865 23.6597C82.0095 24.363 78.2329 27.1556 73.631 26.1213C69.0759 26.1662 64.5299 26.4703 60.0253 27.0315C55.2733 22.191 50.3712 25.5215 45.7443 27.0315C44.426 26.2906 42.8464 25.935 41.256 26.0212C39.6656 26.1074 38.1556 26.6304 36.9656 27.5073C37.8409 29.5759 34.0643 28.3761 32.6637 28.645C29.9626 28.645 23.785 29.9482 17.5074 29.1208C10.0042 34.2509 8.47857 32.5547 2.35099 29.3897L0 29.4725V300.458C1.07545 297.314 5.00211 293.88 9.52901 297.438C18.7829 297.438 20.4336 300.127 23.3098 297.438C26.186 301.058 23.3098 298.493 26.8363 298.907C27.5866 300.975 33.9143 302.734 35.9151 299.962C38.1661 305.816 36.7655 302.175 39.8418 302.279C41.5675 302.279 41.9176 298.907 44.8439 303.478C47.1386 303.448 49.3929 303.98 51.3216 305.009C51.0965 305.009 51.1965 304.306 51.4967 309.332C53.9977 309.126 57.7243 315.538 59.2749 316.366C58.8998 312.001 61.776 318.62 62.5263 319.055C63.8019 323.192 64.4021 316.883 65.6776 318.165C71.4801 315.414 71.8302 321.579 75.4568 325.364C76.8323 323.295 80.1837 326.129 81.5343 324.412C84.0354 321.413 85.461 321.454 88.5623 322.137C91.5385 319.055 94.7149 324.578 97.6411 322.137C99.4168 322.84 101.143 318.414 103.093 320.627C104.494 323.73 104.019 324.288 105.019 321.496C106.995 326.419 107.52 322.344 110.346 322.303C112.372 319.531 115.649 323.916 117.625 322.303C119.175 323.647 120.476 325.343 121.601 320.234C123.577 320.834 125.103 319.241 128.079 316.821C130.58 316.428 133.756 319.138 136.432 316.676C139.134 319.22 139.384 313.801 141.435 315.89C143.135 318.31 145.086 313.428 146.437 314.38C148.137 317.524 147.912 310.574 150.138 311.815C150.813 314.959 153.565 310.739 153.965 311.918C155.741 310.574 157.541 308.815 159.317 311.918C161.818 309.312 161.818 312.435 163.694 313.49C167.245 314.897 173.248 310.801 176.724 309.953C179.801 308.484 182.952 306.912 185.903 308.939C189.755 307.036 193.882 308.939 197.683 309.374C201.485 309.808 205.336 313.987 208.988 309.56C212.865 307.616 215.791 311.629 218.692 312.001C221.593 312.849 224.494 315.269 228.296 314.4C231.998 312.725 235.324 314.835 239.026 313.552C243.678 310.305 248.33 309.622 252.981 313.552C256.558 310.987 260.21 314.359 263.686 313.552C265.562 310.491 267.363 309.974 269.138 310.16V9.24162C268.827 9.18118 268.524 9.09093 268.238 8.97271Z" fill="#EDEDED"/>
</svg>
