<svg width="100" height="100" viewBox="0 0 100 100" fill="none" xmlns="http://www.w3.org/2000/svg">
<rect width="100" height="100" fill="white"/>
<path d="M15.6637 67V34H26.5137L35.7137 58.85H35.9637L44.9637 34H55.3137V67H48.4637L48.9137 41.3H48.3637L38.3637 67H32.3637L22.5137 41.3H21.9637L22.4137 67H15.6637Z" fill="#FF0000"/>
<path d="M71.5914 67.7C69.4247 67.7 67.4747 67.4833 65.7414 67.05C64.0414 66.65 62.5747 66.0333 61.3414 65.2C60.1414 64.3333 59.1914 63.2667 58.4914 62C57.8247 60.7 57.4414 59.2167 57.3414 57.55L63.6414 55.5C63.7081 57 64.0747 58.25 64.7414 59.25C65.4414 60.25 66.4247 60.9833 67.6914 61.45C68.9581 61.9167 70.3747 62.15 71.9414 62.15C73.4414 62.15 74.7081 61.9667 75.7414 61.6C76.7747 61.2333 77.5581 60.75 78.0914 60.15C78.6247 59.5167 78.8914 58.8333 78.8914 58.1C78.8914 57.2333 78.5581 56.5333 77.8914 56C77.2247 55.4667 76.3081 55.0167 75.1414 54.65C74.0081 54.2833 72.7081 53.9333 71.2414 53.6C69.6081 53.2333 67.9914 52.8167 66.3914 52.35C64.8247 51.8833 63.3914 51.2833 62.0914 50.55C60.8247 49.8167 59.8081 48.8667 59.0414 47.7C58.3081 46.5333 57.9414 45.0667 57.9414 43.3C57.9414 41.2667 58.4414 39.5167 59.4414 38.05C60.4747 36.55 61.9747 35.3833 63.9414 34.55C65.9081 33.7167 68.2747 33.3 71.0414 33.3C73.8414 33.3 76.2247 33.7167 78.1914 34.55C80.1914 35.35 81.7414 36.5 82.8414 38C83.9414 39.4667 84.5414 41.2167 84.6414 43.25L78.1414 45.05C78.1414 44.0167 77.9747 43.1167 77.6414 42.35C77.3081 41.5833 76.8414 40.95 76.2414 40.45C75.6414 39.9167 74.8914 39.5167 73.9914 39.25C73.1247 38.9833 72.1247 38.85 70.9914 38.85C69.6914 38.85 68.5581 39.0167 67.5914 39.35C66.6581 39.6833 65.9414 40.1333 65.4414 40.7C64.9747 41.2667 64.7414 41.9333 64.7414 42.7C64.7414 43.6 65.1081 44.35 65.8414 44.95C66.6081 45.5167 67.6081 45.9833 68.8414 46.35C70.1081 46.7167 71.4914 47.0667 72.9914 47.4C74.4247 47.7 75.8747 48.0833 77.3414 48.55C78.8414 48.9833 80.2247 49.5667 81.4914 50.3C82.7914 51 83.8247 51.9667 84.5914 53.2C85.3914 54.4 85.7914 55.9167 85.7914 57.75C85.7914 59.75 85.2581 61.5 84.1914 63C83.1247 64.5 81.5247 65.6667 79.3914 66.5C77.2914 67.3 74.6914 67.7 71.5914 67.7Z" fill="#FF0000"/>
</svg>
