<svg xmlns="http://www.w3.org/2000/svg" viewBox="0 0 123.12 123.12">
    <defs>
        <style>.cls-1{fill:#13110c;}</style>
    </defs>
    <g id="Layer_2" data-name="Layer 2">
        <g id="Layer_1-2" data-name="Layer 1">
            <path class="cls-1" d="M69.67,53.44C63.94,27.15,62.06,9.33,61.56,0c-.5,9.33-2.38,27.15-8.12,53.44C27.14,59.18,9.33,61.06,0,61.56c9.33.5,27.15,2.38,53.44,8.11,5.74,26.3,7.62,44.12,8.12,53.45.5-9.33,2.38-27.15,8.11-53.45,26.29-5.73,44.12-7.61,53.45-8.11C113.79,61.06,96,59.18,69.67,53.44ZM66.19,66.18l-4.63,39.66L56.93,66.18,17.28,61.56l39.65-4.62,4.63-39.66,4.63,39.66,39.65,4.62Z"/>
        </g>
    </g>
</svg>